<?xml version="1.0" encoding="UTF-8" standalone="no"?>
<!DOCTYPE svg PUBLIC "-//W3C//DTD SVG 1.1//EN" "http://www.w3.org/Graphics/SVG/1.1/DTD/svg11.dtd">
<svg width="100%" height="100%" viewBox="0 0 256 256" version="1.1" xmlns="http://www.w3.org/2000/svg" xmlns:xlink="http://www.w3.org/1999/xlink" xml:space="preserve" xmlns:serif="http://www.serif.com/" style="fill-rule:evenodd;clip-rule:evenodd;stroke-linejoin:round;stroke-miterlimit:2;">
    <g transform="matrix(1.99876,0,0,1.99876,128,128)">
        <g transform="matrix(1,0,0,1,-50,-50)">
            <g transform="matrix(4.16667,0,0,4.16667,0,0)">
                <path d="M12,2C17.486,2 22,6.514 22,12C22,17.486 17.486,22 12,22C6.514,22 2,17.486 2,12C2,6.514 6.514,2 12,2M12,4C10.629,4 9.5,5.129 9.5,6.5C9.5,7.871 10.629,9 12,9C13.371,9 14.5,7.871 14.5,6.5C14.5,5.129 13.371,4 12,4M4.4,9.53C3.97,10.84 4.69,12.25 6,12.68C7.32,13.1 8.73,12.39 9.15,11.07C9.58,9.76 8.86,8.35 7.55,7.92C6.24,7.5 4.82,8.21 4.4,9.53M19.61,9.5C19.18,8.21 17.77,7.5 16.46,7.92C15.14,8.34 14.42,9.75 14.85,11.07C15.28,12.38 16.69,13.1 18,12.67C19.31,12.25 20.03,10.83 19.61,9.5M7.31,18.46C8.42,19.28 10,19.03 10.8,17.91C11.61,16.79 11.36,15.23 10.24,14.42C9.13,13.61 7.56,13.86 6.75,14.97C5.94,16.09 6.19,17.65 7.31,18.46M16.7,18.46C17.82,17.65 18.07,16.09 17.26,14.97C16.45,13.85 14.88,13.6 13.77,14.42C12.65,15.23 12.4,16.79 13.21,17.91C14,19.03 15.59,19.27 16.7,18.46M12,10.5C11.177,10.5 10.5,11.177 10.5,12C10.5,12.823 11.177,13.5 12,13.5C12.823,13.5 13.5,12.823 13.5,12C13.5,11.177 12.823,10.5 12,10.5Z" style="fill-rule:nonzero;"/>
            </g>
        </g>
    </g>
</svg>
